<?xml version="1.0" encoding="utf-8"?>
<!-- Generator: Adobe Illustrator 16.0.4, SVG Export Plug-In . SVG Version: 6.00 Build 0)  -->
<!DOCTYPE svg PUBLIC "-//W3C//DTD SVG 1.1//EN" "http://www.w3.org/Graphics/SVG/1.1/DTD/svg11.dtd">
<svg version="1.1" xmlns="http://www.w3.org/2000/svg" xmlns:xlink="http://www.w3.org/1999/xlink" x="0px" y="0px" width="512px"
	 height="512px" viewBox="0 0 512 512" enable-background="new 0 0 512 512" xml:space="preserve">
<g id="snake">
	<path fill="#8CAAE6" d="M500.077,166.762c-2.729-2.012-9.143-6.733-16.641-7.921c3.347-6.813,3.178-14.774,3.104-18.164
		l-0.012-0.583l-7.998,0.129l0.012,0.626c0.094,4.317,0.341,15.785-7.255,19.725c-0.739,0.384-4.938,2.573-9.585,4.997
		C427.247,86.205,348.188,30.689,256.149,30.689c-123.712,0-224,100.288-224,224c0,37.194,9.076,72.265,25.117,103.136
		l71.868-54.016c22.427-16.08,49.163-8.254,59.07,3.305l0.391,0.475l46.141,58.527c12.707,11.792,31.396,15.185,43.521,12.392
		c20.223-4.658,29.728-11.016,39.119-26.162c10.769-17.369,6.61-36.124,5.08-41.458c-3.769-13.134-10.665-20.465-27.329-29.055
		c-3.833-1.973-22.188-6.848-35.588-10.406c-31.241-8.298-50.862-13.754-59.895-19.555c-11.09-7.122-36.958-28.31-37.643-71.132
		c-0.419-26.219,9.7-48.476,29.265-64.365c16.016-13.007,38.012-20.796,60.348-21.369c38.689-0.995,59.903,24.294,66.876,32.603
		c12.032,14.34,26.818,33.35,42.758,54.974c0.395,0.536,0.654,0.888,0.764,1.035c3.313,4.4,7.396,6.619,12.85,6.981
		c5.343,0.355,14.67-0.947,29.184-8.801l-0.121-12.918c0,0,0.132-0.965,0.95-1.652c1.041-0.875,1.885-0.825,1.885-0.825
		l47.816-2.475c0,0,0.978-0.089,1.534,0.249c0.913,0.554,1.041,1.166,1.041,1.166l6.534,14.5c0,0,0.377,0.499,0.185,1.551
		c-0.114,0.642-0.83,1.314-0.83,1.314l-33.524,34.186c0,0-0.518,0.666-1.865,0.869c-1.058,0.157-1.867-0.384-1.867-0.384
		l-9.183-8.272c-45.365,23.787-68.605,5.769-78.556-7.445c-0.121-0.162-0.444-0.598-0.944-1.277
		c-15.573-21.126-29.955-39.624-41.591-53.49c-9.345-11.136-21.79-22.458-43.125-21.896c-29.498,0.757-60.977,18.374-60.387,55.265
		c0.453,28.313,16.835,41.858,23.857,46.368c5.724,3.676,34.307,11.268,51.385,15.803c22.3,5.922,35.228,9.434,41.633,12.735
		c17.558,9.051,34.85,21.062,42.42,47.445c3.064,10.681,8.379,38.446-8.419,65.542c-13.666,22.041-29.895,33.141-57.882,39.588
		c-5.063,1.166-10.324,1.73-15.645,1.73c-20.271,0.001-41.434-8.188-56.158-22.447l-0.722-0.699l-46.892-59.479
		c-1.768-1.229-10.186-4.861-18.842,1.26l-73.799,55.472c40.544,57.526,107.487,95.11,183.215,95.11
		c123.712,0,224-100.288,224-223.999c0-28.807-5.442-56.34-15.348-81.636c4.899-2.528,9.452-4.878,10.224-5.279
		c7.592-3.94,16.829,2.865,20.306,5.427l0.503,0.37l4.711-6.466L500.077,166.762z"/>
</g>
<g id="Japan">
	<g>
		<path fill="#003399" d="M125.62,432.688c-0.673,4.031-2.209,7.8-4.608,11.304c-2.401,3.505-5.857,6.433-10.368,8.784
			c-4.514,2.351-10.609,3.527-18.288,3.527c-4.32,0-8.496-0.601-12.528-1.8c-4.032-1.199-7.632-3.071-10.8-5.616
			c-3.168-2.542-5.712-5.807-7.632-9.792c-1.921-3.982-2.88-8.807-2.88-14.472v-8.928h20.448v4.607c0,2.498,0.191,4.802,0.576,6.912
			c0.382,2.113,1.055,3.913,2.016,5.4c0.958,1.489,2.279,2.664,3.96,3.527c1.678,0.864,3.863,1.297,6.552,1.297
			c2.975,0,5.279-0.527,6.912-1.584c1.631-1.056,2.808-2.424,3.528-4.104c0.72-1.679,1.152-3.503,1.296-5.472
			c0.144-1.967,0.216-3.863,0.216-5.688v-69.408h22.608V421.6C126.628,424.962,126.291,428.656,125.62,432.688z"/>
		<path fill="#003399" d="M143.476,390.496c2.11-3.168,4.8-5.711,8.064-7.632c3.263-1.92,6.935-3.287,11.016-4.104
			c4.079-0.814,8.184-1.224,12.312-1.224c3.744,0,7.535,0.266,11.376,0.792c3.838,0.528,7.344,1.562,10.512,3.096
			c3.168,1.537,5.76,3.672,7.776,6.408c2.016,2.736,3.023,6.36,3.023,10.872v38.736c0,3.361,0.191,6.576,0.576,9.647
			c0.383,3.073,1.056,5.378,2.016,6.912h-20.735c-0.385-1.152-0.697-2.326-0.937-3.528c-0.24-1.199-0.409-2.423-0.504-3.672
			c-3.265,3.361-7.105,5.713-11.52,7.057c-4.417,1.343-8.929,2.016-13.536,2.016c-3.553,0-6.865-0.432-9.937-1.296
			c-3.073-0.864-5.76-2.207-8.063-4.032c-2.304-1.822-4.104-4.126-5.4-6.912c-1.296-2.783-1.943-6.095-1.943-9.936
			c0-4.224,0.742-7.704,2.231-10.44c1.487-2.736,3.406-4.918,5.76-6.552c2.352-1.632,5.04-2.855,8.064-3.672
			c3.024-0.814,6.07-1.463,9.144-1.944c3.071-0.479,6.096-0.864,9.072-1.152c2.975-0.287,5.616-0.72,7.92-1.296
			c2.304-0.575,4.127-1.415,5.473-2.52c1.343-1.103,1.966-2.711,1.871-4.824c0-2.207-0.359-3.96-1.079-5.256
			c-0.721-1.296-1.682-2.304-2.881-3.024c-1.201-0.72-2.592-1.199-4.176-1.439c-1.584-0.238-3.289-0.36-5.111-0.36
			c-4.032,0-7.2,0.864-9.505,2.592c-2.304,1.729-3.649,4.608-4.031,8.641h-20.448C140.164,397.648,141.363,393.664,143.476,390.496z
			 M183.868,419.368c-1.296,0.432-2.689,0.792-4.177,1.08c-1.489,0.288-3.048,0.528-4.68,0.72c-1.634,0.193-3.265,0.432-4.896,0.72
			c-1.537,0.288-3.049,0.673-4.536,1.152c-1.489,0.481-2.786,1.13-3.889,1.944c-1.104,0.816-1.993,1.85-2.663,3.096
			c-0.673,1.249-1.009,2.833-1.009,4.752c0,1.825,0.336,3.361,1.009,4.608c0.67,1.248,1.584,2.231,2.735,2.951
			c1.152,0.721,2.495,1.225,4.032,1.513c1.534,0.288,3.118,0.432,4.752,0.432c4.032,0,7.15-0.671,9.36-2.016
			c2.207-1.344,3.838-2.952,4.896-4.824c1.056-1.872,1.703-3.767,1.944-5.688c0.238-1.919,0.359-3.456,0.359-4.607v-7.632
			C186.244,418.338,185.164,418.936,183.868,419.368z"/>
		<path fill="#003399" d="M239.234,379.552v9.504h0.288c2.495-4.031,5.663-6.959,9.504-8.783c3.839-1.823,8.064-2.736,12.672-2.736
			c5.854,0,10.895,1.104,15.12,3.312c4.224,2.21,7.727,5.137,10.512,8.784c2.784,3.649,4.847,7.897,6.192,12.744
			c1.344,4.849,2.016,9.913,2.016,15.192c0,4.992-0.672,9.792-2.016,14.399c-1.346,4.608-3.384,8.689-6.12,12.24
			c-2.735,3.553-6.145,6.386-10.224,8.496c-4.082,2.11-8.856,3.168-14.328,3.168c-4.608,0-8.856-0.937-12.744-2.808
			c-3.888-1.872-7.081-4.631-9.576-8.28h-0.288v35.28h-20.447V379.552H239.234z M265.803,438.592
			c2.254-1.343,4.079-3.096,5.472-5.256c1.391-2.16,2.376-4.68,2.952-7.56s0.864-5.808,0.864-8.784c0-2.975-0.313-5.904-0.937-8.784
			c-0.625-2.88-1.655-5.447-3.096-7.704c-1.44-2.255-3.289-4.079-5.544-5.472c-2.257-1.391-5.018-2.088-8.28-2.088
			c-3.361,0-6.169,0.697-8.424,2.088c-2.257,1.393-4.081,3.192-5.472,5.399c-1.393,2.21-2.376,4.752-2.952,7.633
			c-0.576,2.88-0.864,5.856-0.864,8.928c0,2.977,0.311,5.904,0.937,8.784c0.623,2.88,1.631,5.399,3.023,7.56
			c1.391,2.16,3.24,3.913,5.544,5.256c2.304,1.346,5.088,2.017,8.353,2.017C260.738,440.608,263.546,439.938,265.803,438.592z"/>
		<path fill="#003399" d="M306.913,390.496c2.11-3.168,4.8-5.711,8.064-7.632c3.263-1.92,6.935-3.287,11.016-4.104
			c4.079-0.814,8.184-1.224,12.312-1.224c3.744,0,7.535,0.266,11.376,0.792c3.838,0.528,7.344,1.562,10.512,3.096
			c3.168,1.537,5.76,3.672,7.776,6.408c2.016,2.736,3.023,6.36,3.023,10.872v38.736c0,3.361,0.191,6.576,0.576,9.647
			c0.383,3.073,1.056,5.378,2.016,6.912H352.85c-0.385-1.152-0.697-2.326-0.937-3.528c-0.24-1.199-0.409-2.423-0.504-3.672
			c-3.265,3.361-7.105,5.713-11.52,7.057c-4.417,1.343-8.929,2.016-13.536,2.016c-3.553,0-6.865-0.432-9.937-1.296
			c-3.073-0.864-5.76-2.207-8.063-4.032c-2.304-1.822-4.104-4.126-5.4-6.912c-1.296-2.783-1.943-6.095-1.943-9.936
			c0-4.224,0.742-7.704,2.231-10.44c1.487-2.736,3.406-4.918,5.76-6.552c2.352-1.632,5.04-2.855,8.064-3.672
			c3.024-0.814,6.07-1.463,9.144-1.944c3.071-0.479,6.096-0.864,9.072-1.152c2.975-0.287,5.616-0.72,7.92-1.296
			c2.304-0.575,4.127-1.415,5.473-2.52c1.343-1.103,1.966-2.711,1.871-4.824c0-2.207-0.359-3.96-1.079-5.256
			c-0.721-1.296-1.682-2.304-2.881-3.024c-1.201-0.72-2.592-1.199-4.176-1.439c-1.584-0.238-3.289-0.36-5.111-0.36
			c-4.032,0-7.2,0.864-9.505,2.592c-2.304,1.729-3.649,4.608-4.031,8.641h-20.448C303.602,397.648,304.801,393.664,306.913,390.496z
			 M347.306,419.368c-1.296,0.432-2.689,0.792-4.177,1.08c-1.489,0.288-3.048,0.528-4.68,0.72c-1.634,0.193-3.265,0.432-4.896,0.72
			c-1.537,0.288-3.049,0.673-4.536,1.152c-1.489,0.481-2.786,1.13-3.889,1.944c-1.104,0.816-1.993,1.85-2.663,3.096
			c-0.673,1.249-1.009,2.833-1.009,4.752c0,1.825,0.336,3.361,1.009,4.608c0.67,1.248,1.584,2.231,2.735,2.951
			c1.152,0.721,2.495,1.225,4.032,1.513c1.534,0.288,3.118,0.432,4.752,0.432c4.032,0,7.15-0.671,9.36-2.016
			c2.207-1.344,3.838-2.952,4.896-4.824c1.056-1.872,1.703-3.767,1.944-5.688c0.238-1.919,0.359-3.456,0.359-4.607v-7.632
			C349.682,418.338,348.602,418.936,347.306,419.368z"/>
		<path fill="#003399" d="M402.671,379.552v10.368h0.433c2.592-4.32,5.951-7.463,10.079-9.432c4.127-1.967,8.353-2.952,12.673-2.952
			c5.472,0,9.958,0.744,13.464,2.231c3.503,1.49,6.264,3.553,8.279,6.192c2.017,2.642,3.432,5.856,4.248,9.648
			c0.814,3.793,1.225,7.991,1.225,12.6V454h-20.448v-42.048c0-6.143-0.961-10.729-2.88-13.752
			c-1.922-3.024-5.328-4.536-10.224-4.536c-5.569,0-9.602,1.656-12.097,4.968c-2.497,3.312-3.744,8.762-3.744,16.344V454h-20.447
			v-74.448H402.671z"/>
	</g>
	<g>
	</g>
	<g>
	</g>
	<g>
	</g>
	<g>
	</g>
	<g>
	</g>
	<g>
	</g>
	<g>
	</g>
	<g>
	</g>
	<g>
	</g>
	<g>
	</g>
	<g>
	</g>
	<g>
	</g>
	<g>
	</g>
	<g>
	</g>
	<g>
	</g>
</g>
</svg>
